<?xml version="1.0" encoding="UTF-8" standalone="no"?>
<svg
   xmlns:dc="http://purl.org/dc/elements/1.1/"
   xmlns:cc="http://creativecommons.org/ns#"
   xmlns:rdf="http://www.w3.org/1999/02/22-rdf-syntax-ns#"
   xmlns:svg="http://www.w3.org/2000/svg"
   xmlns="http://www.w3.org/2000/svg"
   xmlns:sodipodi="http://sodipodi.sourceforge.net/DTD/sodipodi-0.dtd"
   xmlns:inkscape="http://www.inkscape.org/namespaces/inkscape"
   version="1.1"
   viewBox="0 0 1545 1052"
   fill="none"
   stroke="none"
   stroke-linecap="square"
   stroke-miterlimit="10"
   id="svg81"
   sodipodi:docname="survey.svg"
   width="1545"
   height="1052"
   inkscape:version="1.0.1 (0767f8302a, 2020-10-17)">
  <defs
     id="defs85" />
  <sodipodi:namedview
     pagecolor="#ffffff"
     bordercolor="#666666"
     borderopacity="1"
     objecttolerance="10"
     gridtolerance="10"
     guidetolerance="10"
     inkscape:pageopacity="0"
     inkscape:pageshadow="2"
     inkscape:window-width="1920"
     inkscape:window-height="1031"
     id="namedview83"
     showgrid="false"
     inkscape:zoom="0.55766526"
     inkscape:cx="518.8306"
     inkscape:cy="298.2172"
     inkscape:window-x="0"
     inkscape:window-y="25"
     inkscape:window-maximized="1"
     inkscape:current-layer="svg81" />
  <clipPath
     id="p.0">
    <path
       d="M 0,0 H 745 V 711 H 0 Z"
       clip-rule="nonzero"
       id="path2" />
  </clipPath>
  <g
     clip-path="url(#p.0)"
     id="g77"
     transform="matrix(0.71303973,0,0,0.77163963,523.29622,10.616864)">
    <path
       fill="#000000"
       fill-opacity="0"
       d="M 0,0 H 745.53284 V 711.063 H 0 Z"
       fill-rule="nonzero"
       id="path5" />
    <path
       fill="#ffffff"
       d="M 236.79869,695.6872 724.23711,542.94764 589.73626,113.71449 406.04998,17.67934 58.47225,126.59334 Z"
       fill-rule="nonzero"
       id="path7" />
    <path
       fill="#cbcbcb"
       d="m 406.05,17.679323 63.03259,103.123447 120.65369,-7.0883 z"
       fill-rule="nonzero"
       id="path9" />
    <path
       fill="#000000"
       fill-opacity="0"
       d="M 406.05,17.679323 469.08259,120.80277 589.73628,113.71447 406.05,17.67932 58.472273,126.59332 236.79869,695.68722 724.23711,542.94766 589.73626,113.71451"
       fill-rule="nonzero"
       id="path11" />
    <path
       stroke="#000000"
       stroke-width="2"
       stroke-linejoin="round"
       stroke-linecap="butt"
       d="M 406.05,17.679323 469.08259,120.80277 589.73628,113.71447 406.05,17.67932 58.472273,126.59332 236.79869,695.68722 724.23711,542.94766 589.73626,113.71451"
       fill-rule="nonzero"
       id="path13" />
    <path
       fill="#ffffff"
       d="m 152.00916,232.865 57.25201,-17.93999 16.79108,53.58545 -57.252,17.94 z"
       fill-rule="nonzero"
       id="path15" />
    <path
       stroke="#000000"
       stroke-width="2"
       stroke-linejoin="round"
       stroke-linecap="butt"
       d="m 152.00916,232.865 57.25201,-17.93999 16.79108,53.58545 -57.252,17.94 z"
       fill-rule="nonzero"
       id="path17" />
    <path
       fill="#ffffff"
       d="m 173.11102,300.2075 57.252,-17.94 16.79109,53.58548 -57.252,17.94 z"
       fill-rule="nonzero"
       id="path19" />
    <path
       stroke="#000000"
       stroke-width="2"
       stroke-linejoin="round"
       stroke-linecap="butt"
       d="m 173.11102,300.2075 57.252,-17.94 16.79109,53.58548 -57.252,17.94 z"
       fill-rule="nonzero"
       id="path21" />
    <path
       fill="#ffffff"
       d="m 194.21289,367.54996 57.252,-17.94 16.79109,53.58548 -57.252,17.94 z"
       fill-rule="nonzero"
       id="path23" />
    <path
       stroke="#000000"
       stroke-width="2"
       stroke-linejoin="round"
       stroke-linecap="butt"
       d="m 194.21289,367.54996 57.252,-17.94 16.79109,53.58548 -57.252,17.94 z"
       fill-rule="nonzero"
       id="path25" />
    <path
       fill="#ffffff"
       d="m 215.9826,437.02374 57.25201,-17.94 16.79108,53.58548 -57.252,17.93997 z"
       fill-rule="nonzero"
       id="path27" />
    <path
       stroke="#000000"
       stroke-width="2"
       stroke-linejoin="round"
       stroke-linecap="butt"
       d="m 215.9826,437.02374 57.25201,-17.94 16.79108,53.58548 -57.252,17.93997 z"
       fill-rule="nonzero"
       id="path29" />
    <path
       fill="#ffffff"
       d="m 236.41663,502.23492 57.25201,-17.94 16.79108,53.58545 -57.252,17.94 z"
       fill-rule="nonzero"
       id="path31" />
    <path
       stroke="#000000"
       stroke-width="2"
       stroke-linejoin="round"
       stroke-linecap="butt"
       d="m 236.41663,502.23492 57.25201,-17.94 16.79108,53.58545 -57.252,17.94 z"
       fill-rule="nonzero"
       id="path33" />
    <path
       fill="#ffffff"
       d="m 259.52203,575.9713 57.25198,-17.94 16.79111,53.58545 -57.25201,17.94 z"
       fill-rule="nonzero"
       id="path35" />
    <path
       stroke="#000000"
       stroke-width="2"
       stroke-linejoin="round"
       stroke-linecap="butt"
       d="m 259.52203,575.9713 57.25198,-17.94 16.79111,53.58545 -57.25201,17.94 z"
       fill-rule="nonzero"
       id="path37" />
    <path
       fill="#000000"
       fill-opacity="0"
       d="m 138.69043,206.30043 66.34822,-20.79031 25.56168,81.57512 -66.34822,20.79031 z"
       fill-rule="nonzero"
       id="path39" />
    <g
       transform="matrix(0.03532919,-0.01107046,0.01107046,0.03532919,138.69042,206.30043)"
       id="g44">
      <clipPath
         id="p.1">
        <path
           d="M 0,0 H 1878 V 2309 H 0 Z"
           clip-rule="nonzero"
           id="path41" />
      </clipPath>
    </g>
    <path
       fill="#000000"
       fill-opacity="0"
       d="m 225.54012,483.46423 66.34822,-20.79031 25.56168,81.5751 -66.34822,20.79028 z"
       fill-rule="nonzero"
       id="path46" />
    <g
       transform="matrix(0.03532919,-0.01107046,0.01107046,0.03532919,225.54011,483.46423)"
       id="g51">
      <clipPath
         id="p.2">
        <path
           d="M 0,0 H 1878 V 2309 H 0 Z"
           clip-rule="nonzero"
           id="path48" />
      </clipPath>
    </g>
    <path
       fill="#000000"
       fill-opacity="0"
       d="m 238.72441,241.27559 c 28.52772,-14.26386 64.6624,-7.43985 93.19161,-21.70079 20.42623,-10.2105 39.11999,-25.10458 61.27557,-30.63779 13.63068,-3.40417 28.30548,1.23273 42.12863,-1.27821 17.0888,-3.10416 29.14813,-19.03461 44.67978,-26.80841"
       fill-rule="evenodd"
       id="path53" />
    <path
       stroke="#000000"
       stroke-width="2"
       stroke-linejoin="round"
       stroke-linecap="butt"
       d="m 238.72441,241.27559 c 28.52772,-14.26386 64.6624,-7.43985 93.19161,-21.70079 20.42623,-10.2105 39.11999,-25.10458 61.27557,-30.63779 13.63068,-3.40417 28.30548,1.23273 42.12863,-1.27821 17.0888,-3.10416 29.14813,-19.03461 44.67978,-26.80841"
       fill-rule="evenodd"
       id="path55" />
    <path
       fill="#000000"
       fill-opacity="0"
       d="m 270.71652,317.95276 c 28.52774,-14.26385 64.66242,-7.43985 93.19162,-21.70078 20.42624,-10.21051 39.12,-25.10461 61.27557,-30.63781 13.63068,-3.40418 28.30548,1.23273 42.12863,-1.2782 17.08881,-3.10416 29.14814,-19.03461 44.67978,-26.80841"
       fill-rule="evenodd"
       id="path57" />
    <path
       stroke="#000000"
       stroke-width="2"
       stroke-linejoin="round"
       stroke-linecap="butt"
       d="m 270.71652,317.95276 c 28.52774,-14.26385 64.66242,-7.43985 93.19162,-21.70078 20.42624,-10.21051 39.12,-25.10461 61.27557,-30.63781 13.63068,-3.40418 28.30548,1.23273 42.12863,-1.2782 17.08881,-3.10416 29.14814,-19.03461 44.67978,-26.80841"
       fill-rule="evenodd"
       id="path59" />
    <path
       fill="#000000"
       fill-opacity="0"
       d="m 291.1496,382.1273 c 28.52774,-14.26385 64.66242,-7.43985 93.19162,-21.70078 20.42624,-10.21051 39.12,-25.10458 61.27557,-30.63778 13.63068,-3.40418 28.30549,1.23272 42.1286,-1.27823 17.08884,-3.10416 29.14817,-19.03461 44.67978,-26.80841"
       fill-rule="evenodd"
       id="path61" />
    <path
       stroke="#000000"
       stroke-width="2"
       stroke-linejoin="round"
       stroke-linecap="butt"
       d="m 291.1496,382.1273 c 28.52774,-14.26385 64.66242,-7.43985 93.19162,-21.70078 20.42624,-10.21051 39.12,-25.10458 61.27557,-30.63778 13.63068,-3.40418 28.30549,1.23272 42.1286,-1.27823 17.08884,-3.10416 29.14817,-19.03461 44.67978,-26.80841"
       fill-rule="evenodd"
       id="path63" />
    <path
       fill="#000000"
       fill-opacity="0"
       d="m 318.6404,445.01837 c 28.52774,-14.26385 64.66241,-7.43985 93.19162,-21.70078 20.42624,-10.21051 39.12,-25.10461 61.27557,-30.63781 13.63068,-3.40415 28.30548,1.23276 42.1286,-1.2782 17.08887,-3.10416 29.1482,-19.03461 44.67981,-26.80841"
       fill-rule="evenodd"
       id="path65" />
    <path
       stroke="#000000"
       stroke-width="2"
       stroke-linejoin="round"
       stroke-linecap="butt"
       d="m 318.6404,445.01837 c 28.52774,-14.26385 64.66241,-7.43985 93.19162,-21.70078 20.42624,-10.21051 39.12,-25.10461 61.27557,-30.63781 13.63068,-3.40415 28.30548,1.23276 42.1286,-1.2782 17.08887,-3.10416 29.1482,-19.03461 44.67981,-26.80841"
       fill-rule="evenodd"
       id="path67" />
    <path
       fill="#000000"
       fill-opacity="0"
       d="m 366.5538,572.084 c 28.52774,-14.26386 64.66242,-7.43988 93.19159,-21.70081 20.42627,-10.21045 39.12003,-25.10455 61.2756,-30.63775 13.63068,-3.40418 28.30549,1.23272 42.1286,-1.27826 17.08881,-3.10413 29.14814,-19.03458 44.67981,-26.80838"
       fill-rule="evenodd"
       id="path69" />
    <path
       stroke="#000000"
       stroke-width="2"
       stroke-linejoin="round"
       stroke-linecap="butt"
       d="m 366.5538,572.084 c 28.52774,-14.26386 64.66242,-7.43988 93.19159,-21.70081 20.42627,-10.21045 39.12003,-25.10455 61.2756,-30.63775 13.63068,-3.40418 28.30549,1.23272 42.1286,-1.27826 17.08881,-3.10413 29.14814,-19.03458 44.67981,-26.80838"
       fill-rule="evenodd"
       id="path71" />
    <path
       fill="#000000"
       fill-opacity="0"
       d="m 339.15222,506.979 c 28.52774,-14.26386 64.66241,-7.43985 93.19162,-21.70078 20.42624,-10.21051 39.12,-25.10461 61.27557,-30.63781 13.63068,-3.40415 28.30552,1.23272 42.12863,-1.2782 17.08881,-3.10416 29.14814,-19.03461 44.67975,-26.80841"
       fill-rule="evenodd"
       id="path73" />
    <path
       stroke="#000000"
       stroke-width="2"
       stroke-linejoin="round"
       stroke-linecap="butt"
       d="m 339.15222,506.979 c 28.52774,-14.26386 64.66241,-7.43985 93.19162,-21.70078 20.42624,-10.21051 39.12,-25.10461 61.27557,-30.63781 13.63068,-3.40415 28.30552,1.23272 42.12863,-1.2782 17.08881,-3.10416 29.14814,-19.03461 44.67975,-26.80841"
       fill-rule="evenodd"
       id="path75" />
  </g>
  <metadata
     id="metadata79">
    <rdf:RDF>
      <cc:Work>
        <dc:format>image/svg+xml</dc:format>
        <dc:type
           rdf:resource="http://purl.org/dc/dcmitype/StillImage" />
        <cc:license
           rdf:resource="http://creativecommons.org/publicdomain/zero/1.0/" />
        <dc:publisher>
          <cc:Agent
             rdf:about="http://openclipart.org/">
            <dc:title>Openclipart</dc:title>
          </cc:Agent>
        </dc:publisher>
        <dc:title></dc:title>
      </cc:Work>
      <cc:License
         rdf:about="http://creativecommons.org/publicdomain/zero/1.0/">
        <cc:permits
           rdf:resource="http://creativecommons.org/ns#Reproduction" />
        <cc:permits
           rdf:resource="http://creativecommons.org/ns#Distribution" />
        <cc:permits
           rdf:resource="http://creativecommons.org/ns#DerivativeWorks" />
      </cc:License>
    </rdf:RDF>
  </metadata>
  <g
     id="g3841"
     transform="matrix(1.1649,0,0,1.1649,540.56103,567.19383)"
     style="fill:#ffffff;fill-opacity:1;fill-rule:evenodd;stroke:#000000;stroke-width:1.71689;stroke-miterlimit:10;stroke-dasharray:none;stroke-opacity:1">
    <path
       id="path93"
       d="m 407.8,314.37 c -2.824,-0.729 -5.831,-0.819 -9.021,-0.092 -3.325,0.64 -6.651,1.686 -10.341,4.191 -3.735,2.46 -8.017,5.512 -11.799,10.567 -4.008,4.922 -8.518,13.986 -11.069,19.088 -2.642,4.921 -3.507,7.29 -4.009,10.797 -0.5,3.462 -0.136,6.788 1.094,9.794 1.229,2.825 3.053,5.376 5.968,7.472 l 6.195,3.918 c 3.143,1.639 6.195,2.23 9.339,2.141 3.143,-0.229 6.24,-1.367 9.293,-3.234 2.916,-1.868 4.418,-3.964 8.018,-8.246 3.416,-4.556 9.429,-12.709 12.436,-18.313 2.733,-5.694 3.736,-10.751 4.419,-15.169 0.501,-4.465 0.046,-7.927 -0.683,-11.115 -0.821,-3.28 -2.143,-5.922 -3.964,-8.109 z"
       style="fill:#ffffff;fill-opacity:1;stroke:#000000;stroke-width:1.71689;stroke-miterlimit:10;stroke-dasharray:none;stroke-opacity:1" />
    <path
       id="path95"
       fill="#ffffff"
       d="m 395.27,337.87 11.843,-18.678 c -1.138,-0.683 -2.642,-0.956 -4.509,-1.001 -1.913,0 -4.601,0 -6.833,0.864 -2.415,0.593 -5.102,1.823 -7.381,3.509 -2.458,1.686 -4.646,3.825 -6.924,6.604 z"
       style="fill:#ffffff;fill-opacity:1;stroke:#000000;stroke-width:1.71689;stroke-miterlimit:10;stroke-dasharray:none;stroke-opacity:1" />
    <path
       id="path97"
       fill="#ffffff"
       d="m 397.5,339.24 11.754,-18.678 c 1.047,0.774 2.004,1.868 2.868,3.645 0.913,1.821 1.642,3.826 2.188,6.513 0.228,2.416 0.456,5.194 0,8.155 -0.455,2.824 -1.504,5.922 -2.96,9.111 z"
       style="fill:#ffffff;fill-opacity:1;stroke:#000000;stroke-width:1.71689;stroke-miterlimit:10;stroke-dasharray:none;stroke-opacity:1" />
    <path
       id="path99"
       d="m 205.04,266.58 v 13.711 h -37.946 v 16.946 l -32.298,23.006 v 18.585 h 229.32 V 320.243 L 331.817,297.237 V 280.291 H 293.873 V 266.58 h -88.832 z"
       style="fill:#ffffff;fill-opacity:1;stroke:#000000;stroke-width:1.71689;stroke-miterlimit:10;stroke-dasharray:none;stroke-opacity:1" />
    <path
       id="path101"
       fill="#ffffff"
       d="m 175.15,298.88 -29.06,20.59 h 206.73 l -29.07,-20.59 z"
       style="fill:#ffffff;fill-opacity:1;stroke:#000000;stroke-width:1.71689;stroke-miterlimit:10;stroke-dasharray:none;stroke-opacity:1" />
    <path
       id="path103"
       d="m 337.51,304.25 c 4.602,1.093 8.746,0.866 12.619,-0.319 3.78,-1.32 4.827,-3.599 10.341,-7.334 5.603,-3.918 15.124,-13.12 22.594,-15.306 7.288,-2.277 15.67,-1.548 20.955,2.004 5.102,3.508 8.609,12.938 9.657,18.951 0.775,5.876 -0.502,11.252 -4.327,16.309 l 3.326,1.002 c 2.96,-3.053 4.463,-6.377 5.01,-10.341 0.273,-4.1 -0.502,-8.7 -2.322,-13.302 -1.869,-4.693 -4.238,-10.752 -8.337,-13.94 -4.282,-3.279 -11.298,-4.782 -16.31,-5.01 -5.055,-0.364 -8.198,0.683 -13.302,3.324 -5.192,2.688 -12.436,8.383 -17.31,11.981 -4.921,3.417 -7.334,6.604 -11.98,8.336 -4.875,1.504 -10.296,1.822 -16.628,0.956 2.005,0.867 4.009,1.778 6.014,2.689 z"
       style="fill:#ffffff;fill-opacity:1;stroke:#000000;stroke-width:1.71689;stroke-miterlimit:10;stroke-dasharray:none;stroke-opacity:1" />
    <path
       id="path105"
       d="m 40.404,102.68 c -9.521,23.233 1.595,49.79 24.828,59.312 23.233,9.521 49.836,-1.594 59.357,-24.828 9.521,-23.232 -1.595,-49.79 -24.827,-59.311 -23.233,-9.52 -49.791,1.594 -59.358,24.827 z"
       style="fill:#ffffff;fill-opacity:1;stroke:#000000;stroke-width:1.71689;stroke-miterlimit:10;stroke-dasharray:none;stroke-opacity:1" />
    <path
       id="path107"
       fill="#ffffff"
       d="m 46.281,105.05 c -8.2,20.043 1.367,42.912 21.365,51.111 19.998,8.2 42.867,-1.367 51.066,-21.364 8.2,-19.999 -1.366,-42.912 -21.365,-51.111 C 77.349,75.485 54.48,85.052 46.281,105.05 Z"
       style="fill:#ffffff;fill-opacity:1;stroke:#000000;stroke-width:1.71689;stroke-miterlimit:10;stroke-dasharray:none;stroke-opacity:1" />
    <path
       id="path109"
       d="m 91.243,81.039 c 2.323,3.872 4.236,8.063 5.558,13.074 1.321,4.965 2.414,10.204 2.55,16.399 0.046,6.013 -0.637,13.256 -2.049,19.815 -1.549,6.287 -4.146,13.53 -6.56,18.586 -2.459,5.057 -5.147,8.792 -8.063,11.57 l 8.701,-0.5 c 3.69,-5.558 6.468,-10.705 8.837,-15.989 2.187,-5.375 3.554,-10.113 4.647,-15.443 0.911,-5.467 1.321,-11.434 1.229,-16.673 -0.228,-5.284 -0.729,-9.794 -2.004,-14.759 -1.275,-5.056 -2.961,-10.022 -5.238,-15.079 -2.506,-0.317 -5.057,-0.637 -7.608,-1.001 z"
       style="fill:#ffffff;fill-opacity:1;stroke:#000000;stroke-width:1.71689;stroke-miterlimit:10;stroke-dasharray:none;stroke-opacity:1" />
    <path
       id="path111"
       d="m 84.137,79.354 c -3.234,3.097 -6.287,6.65 -8.792,11.16 -2.688,4.328 -5.057,9.248 -6.742,15.124 -1.776,5.694 -2.915,13.074 -3.234,19.679 -0.273,6.605 0.274,13.985 1.458,19.68 1.002,5.557 2.597,9.749 4.783,13.256 l -8.291,-2.778 c -2.096,-6.287 -3.599,-12.027 -4.328,-17.721 -0.866,-5.74 -0.957,-10.706 -0.456,-16.126 0.41,-5.648 1.64,-11.297 3.188,-16.399 1.413,-5.102 3.28,-9.338 5.786,-13.757 2.414,-4.556 5.421,-8.883 9.02,-13.165 2.506,0.318 5.057,0.682 7.608,1.047 z"
       style="fill:#ffffff;fill-opacity:1;stroke:#000000;stroke-width:1.71689;stroke-miterlimit:10;stroke-dasharray:none;stroke-opacity:1" />
    <path
       id="path113"
       d="m 42.865,116.98 c 3.416,2.824 7.471,5.284 12.163,7.38 4.555,2.141 9.84,3.689 15.853,4.828 5.922,0.912 13.256,1.23 19.907,0.774 6.605,-0.638 13.803,-2.232 19.315,-3.917 5.33,-1.822 9.476,-3.781 12.618,-6.377 l -1.731,8.564 c -5.922,2.915 -11.616,4.919 -17.083,6.514 -5.512,1.458 -10.569,2.14 -15.898,2.414 -5.512,0.138 -11.479,-0.364 -16.673,-1.138 -5.285,-0.957 -9.612,-2.187 -14.395,-4.055 -4.738,-1.958 -9.521,-4.327 -14.167,-7.288 -10e-4,-2.552 0.045,-5.103 0.091,-7.699 z"
       style="fill:#ffffff;fill-opacity:1;stroke:#000000;stroke-width:1.71689;stroke-miterlimit:10;stroke-dasharray:none;stroke-opacity:1" />
    <path
       id="path115"
       d="m 249.72,163.95 h -80.06 c -1.698,0 -3.075,1.376 -3.075,3.075 v 127.87 c 0,1.698 1.376,3.075 3.075,3.075 h 160.12 c 1.698,0 3.075,-1.377 3.075,-3.075 v -127.86 c 0,-1.698 -1.377,-3.075 -3.075,-3.075 h -80.063 z"
       style="fill:#ffffff;fill-opacity:1;stroke:#000000;stroke-width:1.71689;stroke-miterlimit:10;stroke-dasharray:none;stroke-opacity:1" />
    <path
       id="path117"
       fill="#ffffff"
       d="m 249.43,172.38 h -68.946 c -1.459,0 -2.642,1.194 -2.642,2.664 v 110.79 c 0,1.471 1.182,2.664 2.642,2.664 h 137.89 c 1.46,0 2.644,-1.193 2.644,-2.664 v -110.79 c 0,-1.47 -1.184,-2.664 -2.644,-2.664 h -68.94 z"
       style="fill:#ffffff;fill-opacity:1;stroke:#000000;stroke-width:1.71689;stroke-miterlimit:10;stroke-dasharray:none;stroke-opacity:1" />
    <path
       id="path119"
       d="m 161.62,177.98 -24.919,-22.96 0.501,12.574 -16.992,-14.351 -5.648,5.512 28.516,24.599 1.048,-10.795 17.493,15.897 V 177.98 Z"
       style="fill:#ffffff;fill-opacity:1;stroke:#000000;stroke-width:1.71689;stroke-miterlimit:10;stroke-dasharray:none;stroke-opacity:1" />
  </g>
  <g
     id="g6258"
     transform="translate(-45.179117,54.337259)">
    <path
       style="display:inline;fill:#f0f0f0;fill-opacity:1;stroke:none;stroke-width:1.78103"
       d="m 125.43042,660.068 -8.26527,-30.22279 10.102,-34.10857 27.09173,-20.7242 33.97946,-4.7493 23.41828,10.3621 16.53054,22.45122 1.37755,28.49577 -11.02037,31.94981 7.36998,-4.72761 c 22.36633,-29.6436 41.11614,-63.11277 60.12976,-96.30286 l 25.255,-11.65736 5.51019,24.17823 -35.35701,87.21433 c 0,0 -30.15403,31.77623 -30.15403,33.50325 0,1.72701 11.75412,25.9 11.75412,25.9 l -7.43588,46.83383 11.56851,27.6374 12.43055,67.75471 c 0,0 2.29591,22.45122 0.45919,26.76876 -1.83673,4.31754 -4.59182,45.76594 -4.59182,45.76594 l -9.18364,25.90525 -11.93873,9.49859 -14.69382,-12.52087 -6.88773,-25.90525 -0.45918,-38.42612 -3.21427,-30.22279 -10.56119,-14.67964 -5.51018,-4.31754 -6.42854,24.60998 -7.8061,44.47068 -5.051,19.86069 -5.051,19.42894 -6.88773,14.67964 -11.02036,2.59052 -11.02037,-8.20332 -6.88772,-33.24507 -1.83673,-50.08349 -0.45918,-46.19769 3.4371,-45.20773 -10.32483,-20.4189 -8.26527,-1.29526 -8.72446,20.29244 -6.88773,37.99437 -6.42854,22.88297 -9.18364,5.18105 -9.642819,-14.24789 -5.96937,-37.99436 5.51019,-52.67401 14.693819,-43.17541 c 11.32879,-9.72936 21.75276,-19.75464 42.70391,-26.33701 z"
       id="path6035"
       inkscape:connector-curvature="0"
       sodipodi:nodetypes="ccccccccccccccsccccscccccccccccccccccccccccccccccccc" />
    <path
       style="display:inline;fill:#e5261f;fill-opacity:1;stroke:none;stroke-width:1.77626"
       d="m 146.98222,677.79683 c 5.93983,13.30152 17.04402,28.13644 29.00453,35.53297 26.66578,16.4905 57.58795,8.06507 45.02493,-51.32357 l 40.91102,-55.87441 c 12.98762,11.57806 25.97525,14.44776 38.96288,18.21991 l -48.05423,68.62834 12.98763,34.61784 -10.39009,41.29849 25.97524,52.83775 -1.29875,61.34036 c -48.74269,8.91825 -91.71725,10.28399 -131.82439,7.89532 l 7.79257,-105.06819 -16.23454,-21.86389 -11.03947,10.32463 -3.89628,19.43456 C 107.59951,783.33732 93.386601,776.85237 89.836671,784.07966 l 8.44196,-54.65977 20.780209,-36.43982 z"
       id="path4139"
       inkscape:connector-curvature="0"
       sodipodi:nodetypes="csccccccccccccccccc" />
    <path
       style="display:inline;fill:#151818;fill-opacity:1;stroke:none;stroke-width:1.78103"
       d="m 155.33295,798.58328 c 34.35765,-2.73597 64.68104,-1.28155 104.21122,-22.09353 l 9.12793,20.70622 c -43.66976,15.00244 -88.83672,18.92259 -115.17587,16.05797 z"
       id="path4261"
       inkscape:connector-curvature="0"
       sodipodi:nodetypes="ccccc" />
    <path
       style="display:inline;fill:#b3b3b3;fill-opacity:1;stroke:none;stroke-width:1.78397px;stroke-linecap:butt;stroke-linejoin:miter;stroke-opacity:1"
       d="m 149.57975,891.59028 c 44.92386,2.99632 89.34833,3.87259 130.85031,-7.65763 l 2.59753,-56.36015 -13.31232,-30.6305 c -36.49805,11.2409 -75.31321,13.73827 -115.26516,11.94589 l -5.84443,46.25206 z"
       id="path4267"
       inkscape:connector-curvature="0"
       sodipodi:nodetypes="ccccccc" />
    <path
       style="color:#000000;font-style:normal;font-variant:normal;font-weight:normal;font-stretch:normal;font-size:medium;line-height:normal;font-family:Sans;-inkscape-font-specification:Sans;text-indent:0;text-align:start;text-decoration:none;text-decoration-line:none;letter-spacing:normal;word-spacing:normal;text-transform:none;writing-mode:lr-tb;direction:ltr;baseline-shift:baseline;text-anchor:start;display:inline;overflow:visible;visibility:visible;fill:#000000;fill-opacity:1;stroke:none;stroke-width:5.34308;marker:none;enable-background:accumulate"
       d="m 178.81032,568.80597 c -5.90464,0.0672 -11.84686,0.97789 -17.62111,2.64449 -23.09701,6.66641 -45.59604,25.74504 -46.14778,56.50583 -0.26285,14.65444 -0.50956,21.79265 12.22572,37.67055 4.38021,5.46109 10.65267,10.29416 20.38503,12.37499 l 7.59731,-0.42941 c -8.56106,-4.85637 -15.39993,-8.34254 -18.97089,-12.2694 -13.08959,-14.39411 -13.9869,-21.60364 -13.66066,-36.05147 0.2846,-12.60378 4.94549,-22.9921 10.58643,-30.98929 7.4931,-10.62298 17.5569,-17.18506 29.59198,-20.65871 21.09531,-6.08867 44.50661,-1.79043 55.44621,15.32668 7.42582,11.61915 14.24559,30.28718 6.48594,52.78195 -3.11303,9.02452 -13.18298,21.68274 -21.2567,33.54338 l 7.73103,-6.92169 c 8.41213,-9.6965 15.79692,-18.04284 19.40926,-29.40317 7.73382,-24.32192 0.4043,-40.11202 -7.60552,-52.64496 -9.33777,-14.61073 -26.48232,-21.68145 -44.19625,-21.47977 z"
       id="path4429"
       inkscape:connector-curvature="0"
       sodipodi:nodetypes="ssssccssssssccsss" />
    <path
       style="color:#000000;font-style:normal;font-variant:normal;font-weight:normal;font-stretch:normal;font-size:medium;line-height:normal;font-family:Sans;-inkscape-font-specification:Sans;text-indent:0;text-align:start;text-decoration:none;text-decoration-line:none;letter-spacing:normal;word-spacing:normal;text-transform:none;writing-mode:lr-tb;direction:ltr;baseline-shift:baseline;text-anchor:start;display:inline;overflow:visible;visibility:visible;fill:#000000;fill-opacity:1;stroke:none;stroke-width:5.34308;marker:none;enable-background:accumulate"
       d="m 308.9089,549.50181 c -5.93083,0.19015 -10.62433,1.94084 -15.30311,4.67849 -4.67879,2.73765 -8.54419,6.8241 -12.11093,11.7653 -7.13348,9.8824 -13.07794,23.31177 -20.77798,37.45467 -9.50016,17.44924 -19.98973,31.77567 -31.38166,45.64317 -6.43284,7.83076 -12.5173,17.30959 -20.44188,22.69854 l -4.93051,7.10733 c 5.35307,-3.64026 13.2161,-10.90595 18.44462,-15.78151 8.01283,-7.47189 13.24415,-13.26055 20.4086,-22.52189 8.65556,-11.18887 16.44648,-23.19264 22.77964,-34.82496 7.81271,-14.34983 13.81039,-27.68553 20.43359,-36.86101 3.31161,-4.58773 7.36609,-8.49594 11.10914,-10.67035 3.04206,-1.76717 4.33308,-2.21022 8.47044,-2.40204 0.7557,-0.035 1.89372,0.21315 2.65745,0.58769 0.77192,0.31465 1.39519,0.66199 2.19013,1.46162 0.85466,0.85971 2.01307,2.2679 2.32019,4.38485 0.61426,4.23391 0.17945,10.36477 -1.14796,17.43208 -2.65467,14.13463 -8.82578,32.0605 -16.24355,47.65487 -8.18637,17.21015 -17.69171,26.71631 -27.07862,38.76508 -1.63948,2.20065 -18.61134,20.33407 -19.43708,27.61607 -0.56119,7.07025 10.18917,25.55067 12.04822,34.26108 2.25267,10.5546 -8.51079,26.56651 -7.81768,38.08628 1.87888,11.93073 12.6007,31.08293 12.80066,32.18429 5.24206,11.45671 12.19525,21.84199 12.94236,35.4239 1.06203,19.30684 -0.4433,33.32476 -1.50055,51.82309 -1.62567,20.37862 -2.96503,40.33226 -6.96484,56.93891 -1.77595,7.1508 -3.042,13.28583 -5.52818,17.8916 -2.31101,4.28124 -5.54095,6.12839 -8.7343,6.89273 -5.42713,-0.21128 -9.77741,-4.30019 -12.90465,-9.7531 -3.31286,-5.77661 -5.28994,-13.28067 -6.37114,-21.4258 -2.04441,-15.40109 -0.94168,-32.84285 -1.15448,-45.19066 -19.90067,1.76514 -12.76731,1.37528 -34.98552,2.36103 -2.73427,13.24606 -5.46809,26.31102 -7.90376,35.6533 -3.25859,12.49875 -6.99673,24.88916 -10.94327,32.48791 -1.90403,3.66606 -5.41392,5.10135 -6.0604,5.42517 -1.17161,0.58687 -0.82481,0.42393 -3.61534,1.19772 l -2.20032,0.17235 -1.67269,0.0409 c -0.89326,-0.15646 -1.30257,-0.16233 -2.41647,-0.7147 -1.1,-0.54548 -1.92177,-1.49857 -3.31227,-3.70965 -2.51438,-3.99825 -4.59051,-11.88887 -5.69053,-21.51682 -2.20005,-19.25587 -5.975,-48.13767 -5.98229,-74.88765 -0.007,-26.74998 8.3846,-57.22912 6.85112,-76.91837 -0.76671,-9.84461 -3.58685,-13.47114 -6.7234,-18.35908 -1.63323,-2.54521 -4.01031,-4.40816 -5.85457,-6.04456 -1.73455,-1.53905 -4.38571,-2.0824 -6.77293,-1.45717 v -0.10794 c -0.11112,0.0176 -0.17761,0.0881 -0.28699,0.10794 -0.056,0.0173 -0.11663,-0.0188 -0.1721,0 v 0.0539 c -3.89568,0.75924 -6.7872,2.84062 -8.60966,5.18105 -1.90292,2.44377 -2.90495,5.10275 -3.73085,6.90807 -2.22622,4.86622 -3.35853,12.06815 -4.41963,20.34641 -1.06109,8.27827 -1.94077,17.52527 -3.21427,25.90525 -1.27349,8.37999 -3.0335,15.92234 -5.39539,20.40039 -1.18094,2.23902 -2.48301,3.63288 -3.61605,4.2096 -1.13304,0.57672 -1.85754,1.20383 -3.86534,0.90672 l -1.24304,-0.53047 -0.99011,-0.47065 c -0.0259,0.007 -0.28229,-0.15595 -0.56371,-0.35965 -0.299,-0.21648 -0.51313,-0.60363 -1.14388,-1.43482 -1.261499,-1.66241 -2.721419,-4.63575 -4.017839,-8.58112 -2.59283,-7.89073 -4.65118,-19.64231 -5.28059,-33.51491 -1.25884,-27.74521 3.1987,-64.01843 19.744819,-95.95736 3.93056,-7.58713 10.80679,-13.74817 18.19508,-17.54001 7.38829,-3.79184 22.35307,-10.30224 31.62615,-14.13995 l -10.96296,0.7016 c -10.06136,4.16802 -16.57937,6.53291 -24.56623,10.63195 -7.98687,4.09904 -14.74885,9.43314 -19.22824,18.0797 -17.091469,32.99159 -21.609779,69.98607 -20.318799,98.43995 0.6455,14.22693 1.79042,28.06574 4.59182,36.59116 1.40068,4.26271 2.97191,7.81689 4.82141,10.25416 0.92475,1.21864 2.82898,2.51841 4.10477,3.22348 0.980129,0.54166 3.255319,1.01907 4.541989,0.91962 2.61138,-0.0359 4.32125,-0.37753 6.73583,-1.60654 2.62299,-1.33509 4.90079,-4.714 6.37115,-7.50173 2.94071,-5.57545 4.60904,-13.39196 5.91196,-21.96549 1.30292,-8.57354 2.79943,-17.04141 3.84565,-25.20365 1.04622,-8.16225 2.34881,-15.24096 4.01784,-18.88925 0.902,-1.97165 1.48557,-4.07066 2.81249,-5.77471 1.32693,-1.70405 2.91577,-4.43803 5.56758,-4.85723 l -0.0573,0.0539 h 0.1721 c 0.88802,-0.29967 0.90077,0.0748 1.60713,0.7016 0.70637,0.62675 2.88113,2.50709 4.30483,4.64136 7.65473,11.47518 6.30095,15.53145 6.36439,20.11679 0.2068,14.94572 -4.40983,36.80588 -6.22501,57.67752 -0.59143,6.80037 -1.41504,11.18794 -1.41337,17.29954 0.007,26.77147 4.70252,53.56387 6.95637,73.29027 1.12691,9.86319 2.75116,17.95323 5.33799,23.63854 1.29342,2.84265 2.81561,5.14448 4.9936,6.69218 1.96605,1.39709 4.26639,2.3192 6.73523,2.30329 3.74791,0.25933 7.46688,-0.48854 10.3693,-2.35725 3.15526,-2.03151 5.67947,-5.23903 7.92088,-9.28272 4.48285,-8.08738 7.95974,-19.68498 11.13517,-32.86728 2.8064,-11.65037 4.6638,-20.02714 7.85906,-33.0895 2.39335,-0.14887 12.27951,-0.62689 24.22041,-1.48807 0.17926,11.92811 -0.68258,24.35617 1.4408,40.35228 1.12999,8.51255 3.6703,19.0435 7.48957,25.70312 2.61462,4.5591 5.59535,8.67226 10.03083,10.63761 2.04358,0.90549 1.95402,0.7046 4.52033,1.38379 l 2.6403,-0.10794 1.72193,-0.37779 c 5.22272,-1.82126 9.07494,-5.9203 11.93873,-11.2256 2.86379,-5.30531 4.85054,-11.94246 6.37115,-19.42894 3.04123,-14.97294 5.73015,-39.60971 7.05992,-57.63918 0.38907,-6.53313 4.19769,-34.14305 1.92087,-52.8937 -0.84194,-13.6751 -5.86873,-20.62184 -9.45832,-29.91688 -2.81685,-7.29408 -14.58191,-25.93978 -15.85177,-35.34086 -0.9155,-13.21706 7.93053,-27.57957 6.70246,-40.12015 -1.28208,-8.71008 -11.45907,-28.28338 -10.93389,-34.89913 6.1331,-8.24616 8.72778,-10.88971 18.30387,-22.55584 2.75931,-4.6902 18.95524,-22.2876 27.34782,-39.93125 7.5923,-15.96125 13.75299,-34.95477 16.52239,-49.70028 1.38471,-7.37275 1.84074,-14.63594 1.09056,-19.80672 -0.3751,-2.58539 -1.7904,-5.06444 -3.04208,-6.96203 -1.25167,-1.8976 -3.58156,-3.26892 -5.08687,-3.6466 l -0.48848,-0.14704 -0.48545,-0.12598 z"
       id="path4437"
       inkscape:connector-curvature="0"
       sodipodi:nodetypes="cssssccsssssscssssccsccsccscssccssscccssssssscccccsssssscccssssssccsssssscsssssscccsssssssscsssccssscccssccsccccsssscccc" />
  </g>
  <path
     id="path4"
     inkscape:connector-curvature="0"
     d="m 102.66979,147.02096 c 0,-24.53835 21.50631,-43.62374 46.75285,-43.62374 25.24654,0 46.75285,19.08539 46.75285,43.62374 0,17.26774 -20.57125,33.62664 -20.57125,49.07672 0,4.54414 -0.93506,8.17945 -5.61034,12.72359 v 3.63531 c 0,1.81766 -3.74023,1.81766 -3.74023,3.63531 0,1.81766 3.74023,1.81766 3.74023,3.63531 0,1.81766 -3.74023,1.81766 -3.74023,3.63532 0,1.81765 3.74023,1.81765 3.74023,3.63531 0,1.81765 -3.74023,1.81765 -3.74023,3.63531 0,1.81766 2.80517,1.81766 2.80517,3.63531 0,1.81766 -6.5454,5.45297 -9.35057,10.90594 h -20.57126 c -2.80517,-5.45297 -9.35057,-9.08828 -9.35057,-10.90594 0,-1.81765 2.80518,-1.81765 2.80518,-3.63531 0,-1.81766 -3.74023,-1.81766 -3.74023,-3.63531 0,-1.81766 3.74023,-1.81766 3.74023,-3.63531 0,-1.81766 -3.74023,-1.81766 -3.74023,-3.63532 0,-1.81765 3.74023,-1.81765 3.74023,-3.63531 0,-1.81765 -3.74023,-1.81765 -3.74023,-3.63531 v -3.63531 c -4.67529,-4.54414 -5.61035,-8.17945 -5.61035,-12.72359 0,-15.45008 -20.57125,-31.80898 -20.57125,-49.07672 z m 4.67529,0 c 0,15.45008 19.63619,32.71781 19.63619,49.07672 0,3.63531 0.93506,7.27062 3.74023,9.08828 h 37.40228 c 2.80517,-1.81766 3.74023,-5.45297 3.74023,-9.08828 0,-16.35891 19.6362,-33.62664 19.6362,-49.07672 0,-20.90304 -18.70114,-37.26194 -42.07757,-37.26194 -23.37642,0 -42.07756,16.3589 -42.07756,37.26194 z m 15.89596,-3.63531 2.24414,-1.09059 16.45701,30.17309 1.30908,29.08249 h -4.11426 l -0.93505,-27.26484 z m 4.67529,0 1.87011,-7.27062 h 1.87012 l 2.80517,7.63415 2.80517,-7.63415 h 1.87011 l 2.80518,7.63415 2.80517,-7.63415 h 1.87011 l 2.80517,7.63415 2.80517,-7.63415 h 1.87012 l 2.80517,7.63415 2.80517,-7.63415 h 1.87011 l 2.80517,7.63415 2.80518,-7.63415 h 1.87011 l 1.87011,7.27062 -2.80517,-3.99884 -2.80517,7.63415 h -1.87011 l -2.80517,-7.63415 -2.80517,7.63415 h -1.87012 l -2.80517,-7.63415 -2.80517,7.63415 h -1.87011 l -2.80518,-7.63415 -2.80517,7.63415 h -1.87011 l -2.80517,-7.63415 -2.80517,7.63415 h -1.87012 l -2.80517,-7.63415 z m 27.67769,58.16499 1.30908,-29.08249 16.457,-30.17309 2.24414,1.09059 -14.96091,30.90015 -0.93506,27.26484 z"
     style="fill:#000000;fill-opacity:1;stroke-width:0.921849" />
</svg>
