<?xml version="1.0" encoding="UTF-8" standalone="no"?>
<svg
   xmlns:dc="http://purl.org/dc/elements/1.1/"
   xmlns:cc="http://creativecommons.org/ns#"
   xmlns:rdf="http://www.w3.org/1999/02/22-rdf-syntax-ns#"
   xmlns:svg="http://www.w3.org/2000/svg"
   xmlns="http://www.w3.org/2000/svg"
   xmlns:sodipodi="http://sodipodi.sourceforge.net/DTD/sodipodi-0.dtd"
   xmlns:inkscape="http://www.inkscape.org/namespaces/inkscape"
   version="1.1"
   viewBox="0 0 1545 1052"
   fill="none"
   stroke="none"
   stroke-linecap="square"
   stroke-miterlimit="10"
   id="svg81"
   sodipodi:docname="survey.svg"
   width="1545"
   height="1052"
   inkscape:version="1.0.1 (0767f8302a, 2020-10-17)">
  <defs
     id="defs85" />
  <sodipodi:namedview
     pagecolor="#ffffff"
     bordercolor="#666666"
     borderopacity="1"
     objecttolerance="10"
     gridtolerance="10"
     guidetolerance="10"
     inkscape:pageopacity="0"
     inkscape:pageshadow="2"
     inkscape:window-width="1920"
     inkscape:window-height="1031"
     id="namedview83"
     showgrid="false"
     inkscape:zoom="0.55766526"
     inkscape:cx="520.6438"
     inkscape:cy="298.18234"
     inkscape:window-x="0"
     inkscape:window-y="25"
     inkscape:window-maximized="1"
     inkscape:current-layer="svg81" />
  <clipPath
     id="p.0">
    <path
       d="M 0,0 H 745 V 711 H 0 Z"
       clip-rule="nonzero"
       id="path2" />
  </clipPath>
  <g
     clip-path="url(#p.0)"
     id="g77"
     transform="matrix(1.4369502,0,0,1.457109,238.88692,10.447546)">
    <path
       fill="#000000"
       fill-opacity="0"
       d="M 0,0 H 745.53284 V 711.063 H 0 Z"
       fill-rule="nonzero"
       id="path5" />
    <path
       fill="#ffffff"
       d="M 236.79869,695.6872 724.23711,542.94764 589.73626,113.71449 406.04998,17.67934 58.47225,126.59334 Z"
       fill-rule="nonzero"
       id="path7" />
    <path
       fill="#cbcbcb"
       d="m 406.05,17.679323 63.03259,103.123447 120.65369,-7.0883 z"
       fill-rule="nonzero"
       id="path9" />
    <path
       fill="#000000"
       fill-opacity="0"
       d="M 406.05,17.679323 469.08259,120.80277 589.73628,113.71447 406.05,17.67932 58.472273,126.59332 236.79869,695.68722 724.23711,542.94766 589.73626,113.71451"
       fill-rule="nonzero"
       id="path11" />
    <path
       stroke="#000000"
       stroke-width="2"
       stroke-linejoin="round"
       stroke-linecap="butt"
       d="M 406.05,17.679323 469.08259,120.80277 589.73628,113.71447 406.05,17.67932 58.472273,126.59332 236.79869,695.68722 724.23711,542.94766 589.73626,113.71451"
       fill-rule="nonzero"
       id="path13" />
    <path
       fill="#ffffff"
       d="m 152.00916,232.865 57.25201,-17.93999 16.79108,53.58545 -57.252,17.94 z"
       fill-rule="nonzero"
       id="path15" />
    <path
       stroke="#000000"
       stroke-width="2"
       stroke-linejoin="round"
       stroke-linecap="butt"
       d="m 152.00916,232.865 57.25201,-17.93999 16.79108,53.58545 -57.252,17.94 z"
       fill-rule="nonzero"
       id="path17" />
    <path
       fill="#ffffff"
       d="m 173.11102,300.2075 57.252,-17.94 16.79109,53.58548 -57.252,17.94 z"
       fill-rule="nonzero"
       id="path19" />
    <path
       stroke="#000000"
       stroke-width="2"
       stroke-linejoin="round"
       stroke-linecap="butt"
       d="m 173.11102,300.2075 57.252,-17.94 16.79109,53.58548 -57.252,17.94 z"
       fill-rule="nonzero"
       id="path21" />
    <path
       fill="#ffffff"
       d="m 194.21289,367.54996 57.252,-17.94 16.79109,53.58548 -57.252,17.94 z"
       fill-rule="nonzero"
       id="path23" />
    <path
       stroke="#000000"
       stroke-width="2"
       stroke-linejoin="round"
       stroke-linecap="butt"
       d="m 194.21289,367.54996 57.252,-17.94 16.79109,53.58548 -57.252,17.94 z"
       fill-rule="nonzero"
       id="path25" />
    <path
       fill="#ffffff"
       d="m 215.9826,437.02374 57.25201,-17.94 16.79108,53.58548 -57.252,17.93997 z"
       fill-rule="nonzero"
       id="path27" />
    <path
       stroke="#000000"
       stroke-width="2"
       stroke-linejoin="round"
       stroke-linecap="butt"
       d="m 215.9826,437.02374 57.25201,-17.94 16.79108,53.58548 -57.252,17.93997 z"
       fill-rule="nonzero"
       id="path29" />
    <path
       fill="#ffffff"
       d="m 236.41663,502.23492 57.25201,-17.94 16.79108,53.58545 -57.252,17.94 z"
       fill-rule="nonzero"
       id="path31" />
    <path
       stroke="#000000"
       stroke-width="2"
       stroke-linejoin="round"
       stroke-linecap="butt"
       d="m 236.41663,502.23492 57.25201,-17.94 16.79108,53.58545 -57.252,17.94 z"
       fill-rule="nonzero"
       id="path33" />
    <path
       fill="#ffffff"
       d="m 259.52203,575.9713 57.25198,-17.94 16.79111,53.58545 -57.25201,17.94 z"
       fill-rule="nonzero"
       id="path35" />
    <path
       stroke="#000000"
       stroke-width="2"
       stroke-linejoin="round"
       stroke-linecap="butt"
       d="m 259.52203,575.9713 57.25198,-17.94 16.79111,53.58545 -57.25201,17.94 z"
       fill-rule="nonzero"
       id="path37" />
    <path
       fill="#000000"
       fill-opacity="0"
       d="m 138.69043,206.30043 66.34822,-20.79031 25.56168,81.57512 -66.34822,20.79031 z"
       fill-rule="nonzero"
       id="path39" />
    <g
       transform="matrix(0.03532919,-0.01107046,0.01107046,0.03532919,138.69042,206.30043)"
       id="g44">
      <clipPath
         id="p.1">
        <path
           d="M 0,0 H 1878 V 2309 H 0 Z"
           clip-rule="nonzero"
           id="path41" />
      </clipPath>
    </g>
    <path
       fill="#000000"
       fill-opacity="0"
       d="m 225.54012,483.46423 66.34822,-20.79031 25.56168,81.5751 -66.34822,20.79028 z"
       fill-rule="nonzero"
       id="path46" />
    <g
       transform="matrix(0.03532919,-0.01107046,0.01107046,0.03532919,225.54011,483.46423)"
       id="g51">
      <clipPath
         id="p.2">
        <path
           d="M 0,0 H 1878 V 2309 H 0 Z"
           clip-rule="nonzero"
           id="path48" />
      </clipPath>
    </g>
    <path
       fill="#000000"
       fill-opacity="0"
       d="m 238.72441,241.27559 c 28.52772,-14.26386 64.6624,-7.43985 93.19161,-21.70079 20.42623,-10.2105 39.11999,-25.10458 61.27557,-30.63779 13.63068,-3.40417 28.30548,1.23273 42.12863,-1.27821 17.0888,-3.10416 29.14813,-19.03461 44.67978,-26.80841"
       fill-rule="evenodd"
       id="path53" />
    <path
       stroke="#000000"
       stroke-width="2"
       stroke-linejoin="round"
       stroke-linecap="butt"
       d="m 238.72441,241.27559 c 28.52772,-14.26386 64.6624,-7.43985 93.19161,-21.70079 20.42623,-10.2105 39.11999,-25.10458 61.27557,-30.63779 13.63068,-3.40417 28.30548,1.23273 42.12863,-1.27821 17.0888,-3.10416 29.14813,-19.03461 44.67978,-26.80841"
       fill-rule="evenodd"
       id="path55" />
    <path
       fill="#000000"
       fill-opacity="0"
       d="m 270.71652,317.95276 c 28.52774,-14.26385 64.66242,-7.43985 93.19162,-21.70078 20.42624,-10.21051 39.12,-25.10461 61.27557,-30.63781 13.63068,-3.40418 28.30548,1.23273 42.12863,-1.2782 17.08881,-3.10416 29.14814,-19.03461 44.67978,-26.80841"
       fill-rule="evenodd"
       id="path57" />
    <path
       stroke="#000000"
       stroke-width="2"
       stroke-linejoin="round"
       stroke-linecap="butt"
       d="m 270.71652,317.95276 c 28.52774,-14.26385 64.66242,-7.43985 93.19162,-21.70078 20.42624,-10.21051 39.12,-25.10461 61.27557,-30.63781 13.63068,-3.40418 28.30548,1.23273 42.12863,-1.2782 17.08881,-3.10416 29.14814,-19.03461 44.67978,-26.80841"
       fill-rule="evenodd"
       id="path59" />
    <path
       fill="#000000"
       fill-opacity="0"
       d="m 291.1496,382.1273 c 28.52774,-14.26385 64.66242,-7.43985 93.19162,-21.70078 20.42624,-10.21051 39.12,-25.10458 61.27557,-30.63778 13.63068,-3.40418 28.30549,1.23272 42.1286,-1.27823 17.08884,-3.10416 29.14817,-19.03461 44.67978,-26.80841"
       fill-rule="evenodd"
       id="path61" />
    <path
       stroke="#000000"
       stroke-width="2"
       stroke-linejoin="round"
       stroke-linecap="butt"
       d="m 291.1496,382.1273 c 28.52774,-14.26385 64.66242,-7.43985 93.19162,-21.70078 20.42624,-10.21051 39.12,-25.10458 61.27557,-30.63778 13.63068,-3.40418 28.30549,1.23272 42.1286,-1.27823 17.08884,-3.10416 29.14817,-19.03461 44.67978,-26.80841"
       fill-rule="evenodd"
       id="path63" />
    <path
       fill="#000000"
       fill-opacity="0"
       d="m 318.6404,445.01837 c 28.52774,-14.26385 64.66241,-7.43985 93.19162,-21.70078 20.42624,-10.21051 39.12,-25.10461 61.27557,-30.63781 13.63068,-3.40415 28.30548,1.23276 42.1286,-1.2782 17.08887,-3.10416 29.1482,-19.03461 44.67981,-26.80841"
       fill-rule="evenodd"
       id="path65" />
    <path
       stroke="#000000"
       stroke-width="2"
       stroke-linejoin="round"
       stroke-linecap="butt"
       d="m 318.6404,445.01837 c 28.52774,-14.26385 64.66241,-7.43985 93.19162,-21.70078 20.42624,-10.21051 39.12,-25.10461 61.27557,-30.63781 13.63068,-3.40415 28.30548,1.23276 42.1286,-1.2782 17.08887,-3.10416 29.1482,-19.03461 44.67981,-26.80841"
       fill-rule="evenodd"
       id="path67" />
    <path
       fill="#000000"
       fill-opacity="0"
       d="m 366.5538,572.084 c 28.52774,-14.26386 64.66242,-7.43988 93.19159,-21.70081 20.42627,-10.21045 39.12003,-25.10455 61.2756,-30.63775 13.63068,-3.40418 28.30549,1.23272 42.1286,-1.27826 17.08881,-3.10413 29.14814,-19.03458 44.67981,-26.80838"
       fill-rule="evenodd"
       id="path69" />
    <path
       stroke="#000000"
       stroke-width="2"
       stroke-linejoin="round"
       stroke-linecap="butt"
       d="m 366.5538,572.084 c 28.52774,-14.26386 64.66242,-7.43988 93.19159,-21.70081 20.42627,-10.21045 39.12003,-25.10455 61.2756,-30.63775 13.63068,-3.40418 28.30549,1.23272 42.1286,-1.27826 17.08881,-3.10413 29.14814,-19.03458 44.67981,-26.80838"
       fill-rule="evenodd"
       id="path71" />
    <path
       fill="#000000"
       fill-opacity="0"
       d="m 339.15222,506.979 c 28.52774,-14.26386 64.66241,-7.43985 93.19162,-21.70078 20.42624,-10.21051 39.12,-25.10461 61.27557,-30.63781 13.63068,-3.40415 28.30552,1.23272 42.12863,-1.2782 17.08881,-3.10416 29.14814,-19.03461 44.67975,-26.80841"
       fill-rule="evenodd"
       id="path73" />
    <path
       stroke="#000000"
       stroke-width="2"
       stroke-linejoin="round"
       stroke-linecap="butt"
       d="m 339.15222,506.979 c 28.52774,-14.26386 64.66241,-7.43985 93.19162,-21.70078 20.42624,-10.21051 39.12,-25.10461 61.27557,-30.63781 13.63068,-3.40415 28.30552,1.23272 42.12863,-1.2782 17.08881,-3.10416 29.14814,-19.03461 44.67975,-26.80841"
       fill-rule="evenodd"
       id="path75" />
  </g>
  <metadata
     id="metadata79">
    <rdf:RDF>
      <cc:Work>
        <dc:format>image/svg+xml</dc:format>
        <dc:type
           rdf:resource="http://purl.org/dc/dcmitype/StillImage" />
        <cc:license
           rdf:resource="http://creativecommons.org/publicdomain/zero/1.0/" />
        <dc:publisher>
          <cc:Agent
             rdf:about="http://openclipart.org/">
            <dc:title>Openclipart</dc:title>
          </cc:Agent>
        </dc:publisher>
        <dc:title></dc:title>
      </cc:Work>
      <cc:License
         rdf:about="http://creativecommons.org/publicdomain/zero/1.0/">
        <cc:permits
           rdf:resource="http://creativecommons.org/ns#Reproduction" />
        <cc:permits
           rdf:resource="http://creativecommons.org/ns#Distribution" />
        <cc:permits
           rdf:resource="http://creativecommons.org/ns#DerivativeWorks" />
      </cc:License>
    </rdf:RDF>
  </metadata>
</svg>
