<?xml version="1.0"?>
<svg xmlns:rdf="http://www.w3.org/1999/02/22-rdf-syntax-ns#" xmlns="http://www.w3.org/2000/svg" xmlns:cc="http://web.resource.org/cc/" xmlns:xlink="http://www.w3.org/1999/xlink" xmlns:dc="http://purl.org/dc/elements/1.1/" xmlns:svg="http://www.w3.org/2000/svg" id="svg2" viewBox="0 0 499.99999 500.00001" version="1.1">
  <title id="title3857">Hotel has internet</title>
  <g id="Layer_1" fill-rule="evenodd" transform="translate(22.606 22.606)">
    <path id="path13" d="m227.39-19.217h-227.09c-10.781 0-19.521 8.7401-19.521 19.521v454.18c0 10.78 8.7401 19.521 19.521 19.521h454.18c10.781 0 19.521-8.7411 19.521-19.521v-454.18c0-10.781-8.7401-19.521-19.521-19.521h-227.09z" stroke="#000" stroke-width="6.7782" fill="#fff"/>
    <g id="g3841" transform="matrix(1.1649 0 0 1.1649 -37.931 -38.608)">
      <path id="path93" d="m407.8 314.37c-2.824-0.729-5.831-0.819-9.021-0.092-3.325 0.64-6.651 1.686-10.341 4.191-3.735 2.46-8.017 5.512-11.799 10.567-4.008 4.922-8.518 13.986-11.069 19.088-2.642 4.921-3.507 7.29-4.009 10.797-0.5 3.462-0.136 6.788 1.094 9.794 1.229 2.825 3.053 5.376 5.968 7.472l6.195 3.918c3.143 1.639 6.195 2.23 9.339 2.141 3.143-0.229 6.24-1.367 9.293-3.234 2.916-1.868 4.418-3.964 8.018-8.246 3.416-4.556 9.429-12.709 12.436-18.313 2.733-5.694 3.736-10.751 4.419-15.169 0.501-4.465 0.046-7.927-0.683-11.115-0.821-3.28-2.143-5.922-3.964-8.109l-5.876-3.69z"/>
      <path id="path95" fill="#fff" d="m395.27 337.87 11.843-18.678c-1.138-0.683-2.642-0.956-4.509-1.001-1.913 0-4.601 0-6.833 0.864-2.415 0.593-5.102 1.823-7.381 3.509-2.458 1.686-4.646 3.825-6.924 6.604l13.804 8.702z"/>
      <path id="path97" fill="#fff" d="m397.5 339.24 11.754-18.678c1.047 0.774 2.004 1.868 2.868 3.645 0.913 1.821 1.642 3.826 2.188 6.513 0.228 2.416 0.456 5.194 0 8.155-0.455 2.824-1.504 5.922-2.96 9.111l-13.85-8.746z"/>
      <path id="path99" d="m205.04 266.58v13.711h-37.946v16.946l-32.298 23.006v18.585h229.32v-18.585l-32.299-23.006v-16.946h-37.944v-13.711h-88.832z"/>
      <path id="path101" fill="#fff" d="m175.15 298.88-29.06 20.59h206.73l-29.07-20.59h-148.6z"/>
      <path id="path103" d="m337.51 304.25c4.602 1.093 8.746 0.866 12.619-0.319 3.78-1.32 4.827-3.599 10.341-7.334 5.603-3.918 15.124-13.12 22.594-15.306 7.288-2.277 15.67-1.548 20.955 2.004 5.102 3.508 8.609 12.938 9.657 18.951 0.775 5.876-0.502 11.252-4.327 16.309l3.326 1.002c2.96-3.053 4.463-6.377 5.01-10.341 0.273-4.1-0.502-8.7-2.322-13.302-1.869-4.693-4.238-10.752-8.337-13.94-4.282-3.279-11.298-4.782-16.31-5.01-5.055-0.364-8.198 0.683-13.302 3.324-5.192 2.688-12.436 8.383-17.31 11.981-4.921 3.417-7.334 6.604-11.98 8.336-4.875 1.504-10.296 1.822-16.628 0.956 2.005 0.867 4.009 1.778 6.014 2.689z"/>
      <path id="path105" d="m40.404 102.68c-9.521 23.233 1.595 49.79 24.828 59.312 23.233 9.521 49.836-1.594 59.357-24.828 9.521-23.232-1.595-49.79-24.827-59.311-23.233-9.52-49.791 1.594-59.358 24.827z"/>
      <path id="path107" fill="#fff" d="m46.281 105.05c-8.2 20.043 1.367 42.912 21.365 51.111 19.998 8.2 42.867-1.367 51.066-21.364 8.2-19.999-1.366-42.912-21.365-51.111-19.998-8.201-42.867 1.366-51.066 21.364z"/>
      <path id="path109" d="m91.243 81.039c2.323 3.872 4.236 8.063 5.558 13.074 1.321 4.965 2.414 10.204 2.55 16.399 0.046 6.013-0.637 13.256-2.049 19.815-1.549 6.287-4.146 13.53-6.56 18.586-2.459 5.057-5.147 8.792-8.063 11.57l8.701-0.5c3.69-5.558 6.468-10.705 8.837-15.989 2.187-5.375 3.554-10.113 4.647-15.443 0.911-5.467 1.321-11.434 1.229-16.673-0.228-5.284-0.729-9.794-2.004-14.759-1.275-5.056-2.961-10.022-5.238-15.079-2.506-0.317-5.057-0.637-7.608-1.001z"/>
      <path id="path111" d="m84.137 79.354c-3.234 3.097-6.287 6.65-8.792 11.16-2.688 4.328-5.057 9.248-6.742 15.124-1.776 5.694-2.915 13.074-3.234 19.679-0.273 6.605 0.274 13.985 1.458 19.68 1.002 5.557 2.597 9.749 4.783 13.256l-8.291-2.778c-2.096-6.287-3.599-12.027-4.328-17.721-0.866-5.74-0.957-10.706-0.456-16.126 0.41-5.648 1.64-11.297 3.188-16.399 1.413-5.102 3.28-9.338 5.786-13.757 2.414-4.556 5.421-8.883 9.02-13.165 2.506 0.318 5.057 0.682 7.608 1.047z"/>
      <path id="path113" d="m42.865 116.98c3.416 2.824 7.471 5.284 12.163 7.38 4.555 2.141 9.84 3.689 15.853 4.828 5.922 0.912 13.256 1.23 19.907 0.774 6.605-0.638 13.803-2.232 19.315-3.917 5.33-1.822 9.476-3.781 12.618-6.377l-1.731 8.564c-5.922 2.915-11.616 4.919-17.083 6.514-5.512 1.458-10.569 2.14-15.898 2.414-5.512 0.138-11.479-0.364-16.673-1.138-5.285-0.957-9.612-2.187-14.395-4.055-4.738-1.958-9.521-4.327-14.167-7.288-0.001-2.552 0.045-5.103 0.091-7.699z"/>
      <path id="path115" d="m249.72 163.95h-80.06c-1.698 0-3.075 1.376-3.075 3.075v127.87c0 1.698 1.376 3.075 3.075 3.075h160.12c1.698 0 3.075-1.377 3.075-3.075v-127.86c0-1.698-1.377-3.075-3.075-3.075h-80.063z"/>
      <path id="path117" fill="#fff" d="m249.43 172.38h-68.946c-1.459 0-2.642 1.194-2.642 2.664v110.79c0 1.471 1.182 2.664 2.642 2.664h137.89c1.46 0 2.644-1.193 2.644-2.664v-110.79c0-1.47-1.184-2.664-2.644-2.664h-68.94z"/>
      <path id="path119" d="m161.62 177.98-24.919-22.96 0.501 12.574-16.992-14.351-5.648 5.512 28.516 24.599 1.048-10.795 17.493 15.897v-10.476z"/>
    </g>
  </g>
  <metadata>
    <rdf:RDF>
      <cc:Work>
        <dc:format>image/svg+xml</dc:format>
        <dc:type rdf:resource="http://purl.org/dc/dcmitype/StillImage"/>
        <cc:license rdf:resource="http://creativecommons.org/licenses/publicdomain/"/>
        <dc:publisher>
          <cc:Agent rdf:about="http://openclipart.org/">
            <dc:title>Openclipart</dc:title>
          </cc:Agent>
        </dc:publisher>
        <dc:title>Hotel Icon Has Internet</dc:title>
        <dc:date>2010-04-23T19:42:15</dc:date>
        <dc:description>Hotel Icons. Originally done for a request, this set has been re-mixed to simple black and white versions. </dc:description>
        <dc:source>http://openclipart.org/detail/50449/hotel-icon-has-internet-by-gerald_g</dc:source>
        <dc:creator>
          <cc:Agent>
            <dc:title>Gerald_G</dc:title>
          </cc:Agent>
        </dc:creator>
        <dc:subject>
          <rdf:Bag>
            <rdf:li>clip art</rdf:li>
            <rdf:li>clipart</rdf:li>
            <rdf:li>computer</rdf:li>
            <rdf:li>hotel</rdf:li>
            <rdf:li>icon</rdf:li>
            <rdf:li>internet</rdf:li>
            <rdf:li>services</rdf:li>
          </rdf:Bag>
        </dc:subject>
      </cc:Work>
      <cc:License rdf:about="http://creativecommons.org/licenses/publicdomain/">
        <cc:permits rdf:resource="http://creativecommons.org/ns#Reproduction"/>
        <cc:permits rdf:resource="http://creativecommons.org/ns#Distribution"/>
        <cc:permits rdf:resource="http://creativecommons.org/ns#DerivativeWorks"/>
      </cc:License>
    </rdf:RDF>
  </metadata>
</svg>
